<?xml version="1.0" encoding="utf-8"?>
<!-- Generator: Adobe Illustrator 25.4.0, SVG Export Plug-In . SVG Version: 6.00 Build 0)  -->
<svg version="1.1" id="Layer_1" xmlns="http://www.w3.org/2000/svg" xmlns:xlink="http://www.w3.org/1999/xlink" x="0px" y="0px"
	 viewBox="0 0 382.92 108.67" style="enable-background:new 0 0 382.92 108.67;" xml:space="preserve">
<g>
	<path d="M293.9,67.32c-3.58,0-7.05,0-10.67,0c0-0.37,0-0.74,0-1.1c0-6.78,0.06-13.57-0.03-20.35c-0.02-1.97-0.24-4-0.76-5.89
		c-1.02-3.62-4.23-5.5-7.74-4.75c-2.37,0.51-3.8,2.16-4.74,4.28c-0.98,2.19-1.08,4.54-1.09,6.88c-0.02,6.56-0.01,13.12-0.01,19.68
		c0,0.38,0,0.76,0,1.21c-3.58,0-7.1,0-10.67,0c0-13.98,0-27.94,0-41.99c0.33-0.02,0.63-0.06,0.93-0.06c2.6-0.01,5.2,0.04,7.79-0.02
		c0.86-0.02,1.08,0.33,1.13,1.09c0.1,1.32,0.26,2.64,0.41,3.96c0.02,0.21,0.11,0.4,0.18,0.65c5.18-9.09,18.65-8.17,22.97,0.95
		c0.24-0.39,0.44-0.72,0.65-1.06c2.82-4.66,7.7-6.81,13.1-6.15c5.38,0.67,10.82,3.94,12.65,11.74c0.6,2.59,0.92,5.31,0.97,7.98
		c0.13,7.32,0.05,14.65,0.05,21.97c0,0.31,0,0.62,0,0.97c-3.6,0-7.1,0-10.74,0c0-0.4,0-0.76,0-1.13c0-6.75,0.05-13.5-0.03-20.25
		c-0.02-1.94-0.18-3.95-0.71-5.8c-1.31-4.62-6.26-6.5-10.01-3.99c-2.13,1.43-3.08,3.54-3.42,5.99c-0.15,1.13-0.2,2.27-0.21,3.41
		c-0.02,6.88-0.01,13.76-0.01,20.63C293.9,66.52,293.9,66.86,293.9,67.32z"/>
	<path d="M52.17,61.11c0,7.65,0,15.3,0,23.02c-3.59,0-7.09,0-10.7,0c0-0.41,0-0.79,0-1.16c0-12.68,0.01-25.36-0.02-38.04
		c0-0.71,0.19-1.19,0.75-1.7c4.53-4.08,7.41-9.15,8.95-15.01c0.03-0.12,0.06-0.24,0.29-0.37c0.15,1.35,0.3,2.7,0.48,4.31
		c1.32-2.14,2.85-3.71,4.73-4.94c5.98-3.92,14.17-3.43,20.04,1.27c6.22,4.98,9.08,11.55,8.5,19.43
		c-0.64,8.64-4.83,15.12-12.83,18.71c-6.72,3.01-14.34,1.24-18.79-4.01c-0.43-0.5-0.79-1.05-1.19-1.57
		C52.31,61.07,52.24,61.09,52.17,61.11z M63.38,35.16c-6.22-0.02-11.16,4.89-11.18,11.11c-0.02,6.2,4.91,11.17,11.13,11.18
		c6,0.02,10.87-4.88,11.12-10.7C74.69,40.63,69.63,35.01,63.38,35.16z"/>
	<path d="M141.64,67.99c-12.11,0-21.6-9.62-21.59-21.88c0-11.83,9.74-21.53,21.61-21.52c11.98,0.01,21.75,9.79,21.78,21.74
		C163.45,58.65,152.84,68.32,141.64,67.99z M141.65,35.55c-5.99-0.01-10.75,4.73-10.76,10.67c-0.01,6.03,4.69,10.74,10.57,10.9
		c5.55,0.15,11.05-4.36,11.02-10.86C152.46,40.27,147.7,35.55,141.65,35.55z"/>
	<path d="M231.01,67.99c-11.49,0.33-21.85-9.8-21.59-22.2c0.22-11.11,9.59-21.29,21.68-21.21c11.99,0.08,21.77,9.84,21.73,21.78
		C252.78,58.36,243.04,68.02,231.01,67.99z M231.08,35.55c-5.93-0.02-10.76,4.72-10.78,10.56c-0.02,6.05,4.66,10.83,10.46,11.02
		c5.67,0.18,11.14-4.38,11.14-10.84C241.89,40.31,237.13,35.56,231.08,35.55z"/>
	<path d="M206.13,33.82c-2.93,1.95-5.8,3.85-8.78,5.83c-2.74-3.37-6.38-4.5-10.56-4c-2.9,0.35-5.19,1.9-6.97,4.19
		c-3.49,4.5-2.64,11.05,1.86,14.91c3.92,3.37,11.87,3.55,15.86-2.19c2.93,1.96,5.87,3.91,8.8,5.87
		c-4.09,6.44-12.74,11.24-22.77,9.09c-9.21-1.97-16.3-10.64-16.73-20.13c-0.52-11.71,7.74-19.63,15.23-21.85
		C191.79,22.65,201.23,26.78,206.13,33.82z"/>
	<path d="M101.46,67.33c-3.63,0-7.11,0-10.65,0c0-14,0-27.98,0-42.09c1.05,0,2.08,0,3.11,0c1.9,0,3.81,0.03,5.7-0.02
		c0.71-0.02,0.94,0.25,1.02,0.9c0.17,1.63,0.39,3.26,0.62,5.16c1.81-2.85,4.13-4.72,7.18-5.62c3-0.89,6.02-0.9,9.05-0.46
		c0.02,0.15,0.06,0.21,0.04,0.27c-0.71,3.29-1.42,6.58-2.1,9.72c-1.87,0.25-3.69,0.3-5.4,0.76c-4.78,1.28-7.69,4.75-8.24,9.66
		c-0.2,1.79-0.31,3.59-0.33,5.39c-0.04,5.04-0.02,10.07-0.02,15.11C101.46,66.5,101.46,66.87,101.46,67.33z"/>
	<path d="M341.46,59.99c0.01,4.64-3.97,8.69-8.55,8.68c-4.62,0-8.55-3.99-8.54-8.68c0.01-4.75,3.84-8.62,8.53-8.62
		C337.6,51.38,341.45,55.26,341.46,59.99z"/>
</g>
</svg>
